<?xml version="1.0" encoding="utf-8"?>
<!-- Generator: Adobe Illustrator 24.1.1, SVG Export Plug-In . SVG Version: 6.00 Build 0)  -->
<svg version="1.1" xmlns="http://www.w3.org/2000/svg" xmlns:xlink="http://www.w3.org/1999/xlink" x="0px" y="0px"
	 viewBox="0 0 1581.33 400" style="enable-background:new 0 0 1581.33 400;" xml:space="preserve">
<style type="text/css">
	.st0{fill:#EC357B;}
	.st1{fill:#F2C335;}
	.st2{fill:#00B7FF;}
	.st3{fill:#F0C245;}
</style>
<g id="Layer_3">
	<path class="st0" d="M23.98,278.67c0,0,0,36,36,36s167,0,167,0s36,0,36-36s0-36,0-36h-239V278.67z"/>
</g>
<g id="Layer_2">
	<path class="st1" d="M23,62.67l1,216c0,0,0-36,36-36s288,0,288,0s36,0,36-36s0-144,0-144s-2-36-36-36s-289,0-289,0
		S22,26.67,23,62.67z"/>
</g>
<g id="Layer_4">
	<g>
		<g>
			<circle class="st2" cx="349.4" cy="109.22" r="13.66"/>
			<circle class="st2" cx="298.28" cy="160.34" r="13.66"/>
			
				<rect x="310.69" y="98.84" transform="matrix(0.7071 0.7071 -0.7071 0.7071 189.9409 -190.0283)" class="st2" width="27.33" height="70.84"/>
		</g>
		<g>
			<circle class="st2" cx="298.15" cy="160.34" r="13.66"/>
			<circle class="st2" cx="264.66" cy="126.85" r="13.66"/>
			
				<rect x="267.88" y="120.23" transform="matrix(-0.7071 0.7071 -0.7071 -0.7071 582.2495 46.2739)" class="st2" width="27.33" height="46.99"/>
		</g>
	</g>
	<g>
		<path class="st0" d="M523.23,306.13c0,2.53-1,4.77-3,6.7c-2,1.93-4.27,2.9-6.8,2.9c-2.8,0-5.2-1.2-7.2-3.6l-43.39-54.58
			l-43.59,54.58c-2,2.4-4.33,3.6-7,3.6c-2.53,0-4.8-0.97-6.8-2.9c-2-1.93-3-4.17-3-6.7c0-2.13,0.8-4.2,2.4-6.2l45.99-56.98
			l-43.79-54.38c-1.6-1.73-2.4-3.8-2.4-6.2c0-2.53,0.97-4.76,2.9-6.7c1.93-1.93,4.16-2.9,6.7-2.9c2.8,0,5.2,1.2,7.2,3.6l41.39,52.18
			l41.39-52.18c1.86-2.4,4.26-3.6,7.2-3.6c2.53,0,4.8,0.97,6.8,2.9c2,1.93,3,4.17,3,6.7c0,2.27-0.87,4.33-2.6,6.2l-43.79,54.38
			l45.79,56.98C522.36,301.8,523.23,303.87,523.23,306.13z"/>
		<path class="st0" d="M597.61,315.53c-11.07,0-20.89-2.36-29.49-7.1c-8.6-4.73-15.33-11.26-20.19-19.6
			c-4.87-8.33-7.3-17.89-7.3-28.69c0-10.93,2.3-20.56,6.9-28.89c4.6-8.33,10.96-14.86,19.09-19.6c8.13-4.73,17.46-7.1,27.99-7.1
			c10.4,0,19.33,2.3,26.79,6.9c7.46,4.6,13.16,10.93,17.1,19c3.93,8.07,5.9,17.36,5.9,27.89c0,2.53-0.87,4.63-2.6,6.3
			c-1.73,1.67-3.93,2.5-6.6,2.5h-80.58v-16h79.98l-8.2,5.6c-0.13-6.66-1.47-12.63-4-17.9c-2.53-5.26-6.13-9.43-10.8-12.5
			c-4.67-3.06-10.33-4.6-17-4.6c-7.6,0-14.09,1.67-19.49,5c-5.4,3.33-9.5,7.9-12.3,13.69s-4.2,12.37-4.2,19.69
			c0,7.33,1.67,13.87,5,19.6c3.33,5.73,7.93,10.26,13.8,13.59c5.86,3.33,12.6,5,20.19,5c4.13,0,8.36-0.76,12.7-2.3
			c4.33-1.53,7.83-3.3,10.5-5.3c2-1.47,4.16-2.23,6.5-2.3c2.33-0.07,4.36,0.63,6.1,2.1c2.26,2,3.46,4.2,3.6,6.6
			c0.13,2.4-0.93,4.47-3.2,6.2c-4.53,3.6-10.17,6.53-16.89,8.8C610.17,314.4,603.74,315.53,597.61,315.53z"/>
		<path class="st0" d="M680.18,314.73c-2.93,0-5.3-0.9-7.1-2.7c-1.8-1.8-2.7-4.17-2.7-7.1V168.37c0-2.93,0.9-5.3,2.7-7.1
			c1.8-1.8,4.16-2.7,7.1-2.7c2.93,0,5.3,0.9,7.1,2.7c1.8,1.8,2.7,4.17,2.7,7.1v136.56c0,2.93-0.9,5.3-2.7,7.1
			C685.48,313.83,683.11,314.73,680.18,314.73z M689.58,274.74l-12.4-13.59l61.38-54.79c2-1.86,4.23-2.73,6.7-2.6
			c2.47,0.13,4.57,1.2,6.3,3.2c1.87,2,2.73,4.2,2.6,6.6c-0.14,2.4-1.2,4.53-3.2,6.4L689.58,274.74z M751.56,313.73
			c-2.13,1.73-4.5,2.5-7.09,2.3c-2.6-0.2-4.77-1.36-6.5-3.5l-40.59-50.19l14-13.2l41.58,51.19c1.73,2.13,2.5,4.43,2.3,6.9
			C755.06,309.7,753.83,311.87,751.56,313.73z"/>
		<path class="st0" d="M823.74,315.53c-10.8,0-20.33-2.36-28.59-7.1c-8.27-4.73-14.76-11.26-19.5-19.6
			c-4.73-8.33-7.1-17.89-7.1-28.69c0-10.93,2.36-20.56,7.1-28.89c4.73-8.33,11.23-14.86,19.5-19.6c8.26-4.73,17.8-7.1,28.59-7.1
			c10.66,0,20.12,2.37,28.39,7.1c8.26,4.73,14.76,11.27,19.5,19.6c4.73,8.33,7.1,17.96,7.1,28.89c0,10.8-2.33,20.36-7,28.69
			c-4.67,8.33-11.13,14.86-19.4,19.6C844.06,313.16,834.53,315.53,823.74,315.53z M823.74,297.53c6.93,0,13.06-1.6,18.39-4.8
			c5.33-3.2,9.5-7.6,12.5-13.2c3-5.6,4.5-12.06,4.5-19.4c0-7.33-1.5-13.83-4.5-19.49c-3-5.67-7.17-10.1-12.5-13.3
			c-5.33-3.2-11.47-4.8-18.39-4.8c-6.93,0-13.07,1.6-18.39,4.8c-5.33,3.2-9.53,7.63-12.6,13.3c-3.07,5.67-4.6,12.17-4.6,19.49
			c0,7.33,1.53,13.8,4.6,19.4c3.06,5.6,7.27,10,12.6,13.2C810.67,295.94,816.81,297.53,823.74,297.53z"/>
		<path class="st0" d="M955.1,315.73c-9.2,0-17.43-1.97-24.69-5.9c-7.27-3.93-13-9.7-17.2-17.3c-4.2-7.6-6.3-16.92-6.3-27.99v-49.19
			c0-2.93,0.96-5.36,2.9-7.3c1.93-1.93,4.36-2.9,7.3-2.9c2.93,0,5.36,0.97,7.3,2.9c1.93,1.93,2.9,4.37,2.9,7.3v49.19
			c0,7.47,1.4,13.63,4.2,18.49c2.8,4.87,6.6,8.47,11.4,10.8c4.8,2.33,10.2,3.5,16.2,3.5c5.73,0,10.83-1.13,15.29-3.4
			c4.46-2.26,8.03-5.33,10.7-9.2c2.67-3.86,4-8.2,4-13h12.6c0,8.27-2.03,15.73-6.1,22.39c-4.07,6.67-9.6,11.93-16.6,15.8
			C971.99,313.8,964.03,315.73,955.1,315.73z M999.28,314.73c-2.93,0-5.37-0.97-7.3-2.9c-1.93-1.93-2.9-4.36-2.9-7.3v-89.17
			c0-3.06,0.97-5.53,2.9-7.4c1.93-1.86,4.36-2.8,7.3-2.8c3.06,0,5.53,0.94,7.4,2.8c1.87,1.87,2.8,4.33,2.8,7.4v89.17
			c0,2.93-0.93,5.37-2.8,7.3C1004.81,313.76,1002.35,314.73,999.28,314.73z"/>
		<path class="st0" d="M1040.87,226.56c-2.8,0-5.07-0.8-6.8-2.4c-1.73-1.6-2.6-3.6-2.6-6c0-2.66,0.87-4.8,2.6-6.4
			c1.73-1.6,4-2.4,6.8-2.4h46.19c2.8,0,5.06,0.8,6.8,2.4c1.73,1.6,2.6,3.73,2.6,6.4c0,2.4-0.87,4.4-2.6,6c-1.74,1.6-4,2.4-6.8,2.4
			H1040.87z M1085.26,314.73c-6.67,0-12.66-1.7-17.99-5.1c-5.33-3.4-9.53-8.03-12.6-13.9c-3.07-5.86-4.6-12.46-4.6-19.79v-95.37
			c0-2.93,0.93-5.33,2.8-7.2c1.87-1.86,4.27-2.8,7.2-2.8c2.93,0,5.33,0.94,7.2,2.8c1.87,1.87,2.8,4.27,2.8,7.2v95.37
			c0,5.33,1.46,9.8,4.4,13.4c2.93,3.6,6.53,5.4,10.8,5.4h6.8c2.4,0,4.43,0.94,6.1,2.8c1.67,1.87,2.5,4.27,2.5,7.2
			c0,2.93-1.1,5.33-3.3,7.2c-2.2,1.87-5.03,2.8-8.5,2.8H1085.26z"/>
		<path class="st3" d="M1131.44,317.93c-3.73,0-6.97-1.37-9.7-4.1c-2.73-2.73-4.1-5.96-4.1-9.7c0-3.86,1.37-7.16,4.1-9.9
			c2.73-2.73,5.96-4.1,9.7-4.1c3.86,0,7.13,1.37,9.8,4.1c2.67,2.73,4,6.03,4,9.9c0,3.73-1.33,6.97-4,9.7
			C1138.57,316.56,1135.31,317.93,1131.44,317.93z"/>
		<path class="st2" d="M1218.81,315.53c-9.73,0-18.47-2.43-26.19-7.3c-7.73-4.87-13.83-11.46-18.29-19.79
			c-4.47-8.33-6.7-17.76-6.7-28.29c0-10.53,2.43-19.99,7.3-28.39c4.87-8.4,11.46-15.03,19.79-19.89c8.33-4.87,17.69-7.3,28.09-7.3
			s19.73,2.43,27.99,7.3c8.26,4.87,14.83,11.5,19.69,19.89c4.87,8.4,7.3,17.86,7.3,28.39h-7.8c0,10.53-2.23,19.96-6.7,28.29
			c-4.47,8.33-10.57,14.93-18.29,19.79C1237.27,313.1,1228.54,315.53,1218.81,315.53z M1222.81,297.53c6.8,0,12.86-1.63,18.19-4.9
			c5.33-3.27,9.53-7.73,12.6-13.4c3.06-5.66,4.6-12.03,4.6-19.09c0-7.2-1.53-13.63-4.6-19.29c-3.07-5.67-7.27-10.13-12.6-13.4
			c-5.33-3.27-11.4-4.9-18.19-4.9c-6.67,0-12.7,1.64-18.09,4.9c-5.4,3.27-9.67,7.73-12.8,13.4c-3.13,5.67-4.7,12.09-4.7,19.29
			c0,7.07,1.57,13.43,4.7,19.09c3.13,5.67,7.4,10.13,12.8,13.4C1210.11,295.9,1216.15,297.53,1222.81,297.53z M1267.6,314.93
			c-2.93,0-5.37-0.97-7.3-2.9c-1.93-1.93-2.9-4.37-2.9-7.3v-30.59l3.8-21.19l16.59,7.2v44.59c0,2.93-0.97,5.37-2.9,7.3
			C1272.96,313.96,1270.53,314.93,1267.6,314.93z"/>
		<path class="st2" d="M1318.38,361.51c-2.93,0-5.37-0.97-7.3-2.9c-1.94-1.93-2.9-4.37-2.9-7.3v-91.17
			c0.13-10.53,2.6-19.99,7.4-28.39c4.8-8.4,11.33-15.03,19.6-19.89c8.26-4.87,17.59-7.3,27.99-7.3c10.53,0,19.92,2.43,28.19,7.3
			c8.26,4.87,14.83,11.5,19.7,19.89c4.86,8.4,7.3,17.86,7.3,28.39c0,10.53-2.23,19.96-6.7,28.29c-4.47,8.33-10.57,14.93-18.29,19.79
			c-7.73,4.87-16.46,7.3-26.19,7.3c-7.86,0-15.09-1.63-21.69-4.9c-6.6-3.27-12.23-7.7-16.9-13.3v53.98c0,2.93-0.94,5.36-2.8,7.3
			C1323.91,360.55,1321.45,361.51,1318.38,361.51z M1363.17,297.53c6.8,0,12.86-1.63,18.19-4.9c5.33-3.27,9.56-7.73,12.7-13.4
			c3.13-5.66,4.7-12.03,4.7-19.09c0-7.2-1.57-13.63-4.7-19.29c-3.13-5.67-7.37-10.13-12.7-13.4c-5.33-3.27-11.4-4.9-18.19-4.9
			c-6.67,0-12.7,1.64-18.1,4.9c-5.4,3.27-9.63,7.73-12.69,13.4c-3.07,5.67-4.6,12.09-4.6,19.29c0,7.07,1.53,13.43,4.6,19.09
			c3.06,5.67,7.3,10.13,12.69,13.4C1350.47,295.9,1356.5,297.53,1363.17,297.53z"/>
		<path class="st2" d="M1458.94,361.51c-2.93,0-5.37-0.97-7.3-2.9c-1.94-1.93-2.9-4.37-2.9-7.3v-91.17
			c0.13-10.53,2.6-19.99,7.4-28.39c4.8-8.4,11.33-15.03,19.6-19.89c8.26-4.87,17.59-7.3,27.99-7.3c10.53,0,19.92,2.43,28.19,7.3
			c8.26,4.87,14.83,11.5,19.7,19.89c4.86,8.4,7.3,17.86,7.3,28.39c0,10.53-2.23,19.96-6.7,28.29c-4.47,8.33-10.57,14.93-18.29,19.79
			c-7.73,4.87-16.46,7.3-26.19,7.3c-7.86,0-15.09-1.63-21.69-4.9c-6.6-3.27-12.23-7.7-16.89-13.3v53.98c0,2.93-0.94,5.36-2.8,7.3
			C1464.47,360.55,1462,361.51,1458.94,361.51z M1503.73,297.53c6.8,0,12.86-1.63,18.19-4.9c5.33-3.27,9.56-7.73,12.7-13.4
			c3.13-5.66,4.7-12.03,4.7-19.09c0-7.2-1.57-13.63-4.7-19.29c-3.13-5.67-7.37-10.13-12.7-13.4c-5.33-3.27-11.4-4.9-18.19-4.9
			c-6.67,0-12.7,1.64-18.1,4.9c-5.4,3.27-9.63,7.73-12.69,13.4c-3.07,5.67-4.6,12.09-4.6,19.29c0,7.07,1.53,13.43,4.6,19.09
			c3.06,5.67,7.3,10.13,12.69,13.4C1491.03,295.9,1497.06,297.53,1503.73,297.53z"/>
	</g>
</g>
</svg>
